<?xml version="1.0" encoding="utf-8"?>
<!-- Generator: Adobe Illustrator 24.1.0, SVG Export Plug-In . SVG Version: 6.00 Build 0)  -->
<svg version="1.1" id="Capa_1" xmlns="http://www.w3.org/2000/svg" xmlns:xlink="http://www.w3.org/1999/xlink" x="0px" y="0px"
	 viewBox="0 0 81.5 43.8" style="enable-background:new 0 0 81.5 43.8;" xml:space="preserve">
<style type="text/css">
	.st0{fill:#001D30;}
	.st1{fill:none;stroke:#001D30;stroke-width:1.5;stroke-miterlimit:10;}
</style>
<g id="Grupo_1259" transform="translate(-619 -1487.136)">
	<g id="Grupo_1258" transform="translate(619 1487.136)">
		<g id="Grupo_1246" transform="translate(21.969 0)">
			<g id="Grupo_1243" transform="translate(7.98)">
				<g id="Grupo_1242">
					<path id="Trazado_42828" class="st0" d="M19.8,10.8c0,5-4,9-9,9c-5,0-9-4-9-9c0-5,4-9,9-9c0.6,0,1.2,0.1,1.7,0.2
						C16.7,2.8,19.8,6.5,19.8,10.8c0,0.5,0.4,0.9,0.9,0.9c0.5,0,0.9-0.4,0.9-0.9c0-6-4.8-10.9-10.8-10.9S-0.1,4.7-0.1,10.7
						s4.8,10.9,10.8,10.9c5.3,0,9.9-3.8,10.8-9.1c0.1-0.6,0.1-1.1,0.1-1.7c0-0.5-0.4-0.9-0.9-0.9C20.2,9.9,19.8,10.3,19.8,10.8z"/>
				</g>
			</g>
			<g id="Grupo_1245" transform="translate(0 19.636)">
				<g id="Grupo_1244">
					<path id="Trazado_42829" class="st0" d="M30.5,1.7c3.3,2.1,5.3,5.8,5.3,9.7v7.1c0.1,1-0.1,2-0.7,2.9c-0.6,0.7-1.5,1.1-2.5,1
						H4.7c-1.6,0-2.9-1.3-2.9-3c0-2.3,0-4.6,0-6.9c0-1.1,0-2.2,0.2-3.2c0.4-2.1,1.3-4,2.7-5.6C5.4,3,6.1,2.3,7,1.8
						c1-0.6,0.1-2.2-0.9-1.6C2.3,2.6,0,6.8,0,11.3c0,2.4,0,4.8,0,7.2c-0.1,1.3,0.2,2.6,0.9,3.7c0.9,1.3,2.4,2,4,2c1.5,0,3,0,4.5,0
						h22.9c0.6,0,1.3,0,1.9-0.2c2-0.6,3.4-2.5,3.5-4.6c0-2.4,0-4.8,0-7.1c0-1.3-0.1-2.7-0.3-4C36.7,6,35.6,4,34,2.3
						c-0.8-0.8-1.6-1.5-2.6-2.1C30.4-0.5,29.5,1.1,30.5,1.7L30.5,1.7z"/>
				</g>
			</g>
		</g>
		<g id="Grupo_1257" transform="translate(0 12.216)">
			<g id="Grupo_1251" transform="translate(61.614 0)">
				<g id="Grupo_1250" transform="translate(1.603 12.768)">
					<g id="Grupo_1249">
						<path id="Trazado_42831" class="st0" d="M13.2,1.7c1.4,0.9,2.4,2.2,2.9,3.8c0.3,1,0.4,2,0.3,3v3.3c0,0.8,0.1,1.7-0.4,2.3
							c-0.4,0.4-1.1,0.6-1.7,0.5H0.9C0.4,14.6,0,15,0,15.5c0,0.5,0.4,0.9,0.9,0.9h13.5c0.9,0.1,1.7-0.2,2.5-0.7
							c0.8-0.6,1.3-1.5,1.4-2.5c0-0.3,0-0.6,0-0.9V9c0.1-1.3-0.1-2.6-0.4-3.8c-0.6-2.1-2-3.8-3.8-5C13.1-0.5,12.2,1.1,13.2,1.7
							L13.2,1.7z"/>
					</g>
				</g>
			</g>
			<g id="Grupo_1256" transform="translate(0 0)">
				<g id="Grupo_1253" transform="translate(5.195)">
					<g id="Grupo_1252">
						<path id="Trazado_42832_2_" class="st1" d="M12.9,7.4c0,3.1-2.5,5.6-5.6,5.5s-5.6-2.5-5.5-5.6c0-3.1,2.5-5.6,5.6-5.5
							c0.3,0,0.7,0,1,0.1C11,2.4,12.9,4.7,12.9,7.4"/>
					</g>
				</g>
				<g id="Grupo_1255" transform="translate(0 12.803)">
					<g id="Grupo_1254">
						<path id="Trazado_42833" class="st0" d="M17.4,14.6H4.3c-0.4,0-0.8,0-1.3,0c-0.6-0.1-1.1-0.6-1.2-1.3c0-0.3,0-0.5,0-0.8V9.3
							c-0.1-1,0-2,0.1-3C2.3,4.4,3.4,2.7,5,1.7c1-0.6,0.1-2.2-0.9-1.6C2.5,1.2,1.2,2.8,0.5,4.6C0.1,5.8,0,7,0,8.2v3.5
							c-0.1,1,0,2,0.5,3c0.7,1.1,1.9,1.7,3.1,1.7h13.8c0.5,0,0.9-0.4,0.9-0.9C18.3,14.9,17.9,14.5,17.4,14.6L17.4,14.6z"/>
					</g>
				</g>
			</g>
		</g>
	</g>
</g>
<g id="Grupo_1253_1_" transform="translate(5.195)">
	<g id="Grupo_1252_1_">
		<path id="Trazado_42832_1_" class="st1" d="M69.3,19.6c0,3.1-2.5,5.6-5.6,5.5c-3.1,0-5.6-2.5-5.5-5.6c0-3.1,2.5-5.6,5.6-5.5
			c0.3,0,0.7,0,1,0.1C67.4,14.6,69.3,16.9,69.3,19.6"/>
	</g>
</g>
</svg>
